# xmcd
#
# Track frame offsets:
#	155
#	9738
#	22458
#	32352
#	40871
#	51748
#	61703
#	72186
#	82372
#	92144
#	100429
#	111488
#	119111
#	132120
#	141756
#	151458
#
# Disc length: 2155 seconds
#
# Revision: 0
# Processed by: cddbd v1.4PL0 Copyright (c) Steve Scherf et al.
# Submitted via: dBpowerAMP V4.0
#
DISCID=f0086910
DTITLE=Mistro's - The Mistro's Vol II
DYEAR=1900
DGENRE=
TTITLE0=Tic Toc Polka
TTITLE1=Snow Waltz
TTITLE2=Fleeting Memories
TTITLE3=Just Because
TTITLE4=Across The Plains Polka
TTITLE5=T G Waltz
TTITLE6=Somewhere My Love
TTITLE7=Wesphalia Waltz
TTITLE8=Happy Wanderer
TTITLE9=Oh Suzanna
TTITLE10=Life In The Finland Woods
TTITLE11=Beer Barrel Polka
TTITLE12=No Beer Polka
TTITLE13=The Fox
TTITLE14=Hi Lo Schottische
TTITLE15=Wandering Minstrel Waltz
EXTD=
EXTT0=
EXTT1=
EXTT2=
EXTT3=
EXTT4=
EXTT5=
EXTT6=
EXTT7=
EXTT8=
EXTT9=
EXTT10=
EXTT11=
EXTT12=
EXTT13=
EXTT14=
EXTT15=
PLAYORDER=
